# Blender v3.0.0 Alpha OBJ File: ''
# www.blender.org
mtllib sphere.mtl
o Sphere
v 0.707107 0.000000 -0.707107
v 0.923880 0.000000 -0.382683
v 0.923880 0.000000 0.382683
v 0.382683 0.000000 0.923880
v 0.353553 0.146447 -0.923880
v 0.653281 0.270598 -0.707107
v 0.853553 0.353553 -0.382683
v 0.923880 0.382683 0.000000
v 0.853553 0.353553 0.382683
v 0.653281 0.270598 0.707107
v 0.353553 0.146447 0.923880
v 0.270598 0.270598 -0.923880
v 0.500000 0.500000 -0.707107
v 0.653281 0.653282 -0.382683
v 0.707107 0.707107 0.000000
v 0.653281 0.653282 0.382683
v 0.500000 0.500000 0.707107
v 0.270598 0.270598 0.923880
v 0.146447 0.353554 -0.923880
v 0.270598 0.653282 -0.707107
v 0.353553 0.853554 -0.382683
v 0.382683 0.923880 0.000000
v 0.353553 0.853554 0.382683
v 0.270598 0.653282 0.707107
v 0.146447 0.353554 0.923880
v -0.000000 0.382684 -0.923880
v -0.000000 0.707107 -0.707107
v -0.000000 0.923880 -0.382683
v -0.000000 1.000000 0.000000
v -0.000000 0.923880 0.382683
v -0.000000 0.707107 0.707107
v -0.000000 0.382684 0.923880
v -0.146447 0.353553 -0.923880
v -0.270598 0.653282 -0.707107
v -0.353554 0.853553 -0.382683
v -0.382684 0.923879 0.000000
v -0.353554 0.853553 0.382683
v -0.270598 0.653282 0.707107
v -0.146447 0.353553 0.923880
v -0.270598 0.270598 -0.923880
v -0.500000 0.500000 -0.707107
v -0.653282 0.653281 -0.382683
v -0.707107 0.707107 0.000000
v -0.653282 0.653281 0.382683
v -0.500000 0.500000 0.707107
v -0.270598 0.270598 0.923880
v -0.353554 0.146447 -0.923880
v -0.653282 0.270598 -0.707107
v -0.853554 0.353553 -0.382683
v -0.923880 0.382683 0.000000
v -0.853554 0.353553 0.382683
v -0.653282 0.270598 0.707107
v -0.353554 0.146447 0.923880
v -0.000000 -0.000000 -1.000000
v -0.382684 -0.000000 -0.923880
v -0.707107 -0.000000 -0.707107
v -0.923880 -0.000000 -0.382683
v -1.000000 -0.000000 0.000000
v -0.923880 -0.000000 0.382683
v -0.707107 -0.000000 0.707107
v -0.382684 -0.000000 0.923880
v -0.353553 -0.146447 -0.923880
v -0.653282 -0.270598 -0.707107
v -0.853553 -0.353554 -0.382683
v -0.923880 -0.382684 0.000000
v -0.853553 -0.353554 0.382683
v -0.653282 -0.270598 0.707107
v -0.353553 -0.146447 0.923880
v -0.270598 -0.270598 -0.923880
v -0.500000 -0.500000 -0.707107
v -0.653281 -0.653282 -0.382683
v -0.707107 -0.707107 0.000000
v -0.653281 -0.653282 0.382683
v -0.500000 -0.500000 0.707107
v -0.270598 -0.270598 0.923880
v -0.000000 0.000000 1.000000
v -0.146447 -0.353553 -0.923880
v -0.270598 -0.653282 -0.707107
v -0.353553 -0.853553 -0.382683
v -0.382683 -0.923880 0.000000
v -0.353553 -0.853553 0.382683
v -0.270598 -0.653282 0.707107
v -0.146447 -0.353553 0.923880
v 0.000000 -0.382683 -0.923880
v 0.000000 -0.707107 -0.707107
v 0.000000 -0.923879 -0.382683
v 0.000000 -1.000000 0.000000
v 0.000000 -0.923879 0.382683
v 0.000000 -0.707107 0.707107
v 0.000000 -0.382683 0.923880
v 0.146447 -0.353553 -0.923880
v 0.270598 -0.653281 -0.707107
v 0.353554 -0.853553 -0.382683
v 0.382684 -0.923879 0.000000
v 0.353554 -0.853553 0.382683
v 0.270598 -0.653281 0.707107
v 0.146447 -0.353553 0.923880
v 0.270598 -0.270598 -0.923880
v 0.500000 -0.500000 -0.707107
v 0.653282 -0.653281 -0.382683
v 0.707107 -0.707106 0.000000
v 0.653282 -0.653281 0.382683
v 0.500000 -0.500000 0.707107
v 0.270598 -0.270598 0.923880
v 0.353553 -0.146446 -0.923880
v 0.653281 -0.270598 -0.707107
v 0.853553 -0.353553 -0.382683
v 0.923880 -0.382683 0.000000
v 0.853553 -0.353553 0.382683
v 0.653281 -0.270598 0.707107
v 0.353553 -0.146446 0.923880
v 0.382683 0.000000 -0.923880
v 1.000000 0.000001 0.000000
v 0.707107 0.000000 0.707107
vt 0.750000 0.875000
vt 0.718750 1.000000
vt 0.687500 0.875000
vt 0.718750 0.000000
vt 0.750000 0.125000
vt 0.687500 0.125000
vt 0.750000 0.250000
vt 0.687500 0.375000
vt 0.687500 0.250000
vt 0.750000 0.500000
vt 0.687500 0.625000
vt 0.687500 0.500000
vt 0.687500 0.750000
vt 0.750000 0.750000
vt 0.750000 0.375000
vt 0.750000 0.625000
vt 0.625000 0.500000
vt 0.625000 0.750000
vt 0.625000 0.125000
vt 0.625000 0.375000
vt 0.625000 0.625000
vt 0.656250 1.000000
vt 0.625000 0.875000
vt 0.656250 0.000000
vt 0.625000 0.250000
vt 0.562500 0.125000
vt 0.562500 0.375000
vt 0.562500 0.625000
vt 0.593750 1.000000
vt 0.562500 0.875000
vt 0.593750 0.000000
vt 0.562500 0.250000
vt 0.562500 0.500000
vt 0.562500 0.750000
vt 0.500000 0.625000
vt 0.531250 1.000000
vt 0.500000 0.875000
vt 0.531250 0.000000
vt 0.500000 0.125000
vt 0.500000 0.250000
vt 0.500000 0.500000
vt 0.500000 0.750000
vt 0.500000 0.375000
vt 0.468750 0.000000
vt 0.437500 0.125000
vt 0.437500 0.250000
vt 0.437500 0.500000
vt 0.437500 0.750000
vt 0.437500 0.375000
vt 0.437500 0.625000
vt 0.468750 1.000000
vt 0.437500 0.875000
vt 0.375000 0.750000
vt 0.375000 0.125000
vt 0.375000 0.375000
vt 0.375000 0.625000
vt 0.406250 1.000000
vt 0.375000 0.875000
vt 0.406250 0.000000
vt 0.375000 0.250000
vt 0.375000 0.500000
vt 0.312500 0.250000
vt 0.312500 0.125000
vt 0.312500 0.500000
vt 0.312500 0.375000
vt 0.312500 0.750000
vt 0.312500 0.625000
vt 0.343750 1.000000
vt 0.312500 0.875000
vt 0.343750 0.000000
vt 0.281250 1.000000
vt 0.250000 0.875000
vt 0.281250 0.000000
vt 0.250000 0.125000
vt 0.250000 0.250000
vt 0.250000 0.500000
vt 0.250000 0.750000
vt 0.250000 0.375000
vt 0.250000 0.625000
vt 0.187500 0.250000
vt 0.187500 0.625000
vt 0.187500 0.500000
vt 0.187500 0.750000
vt 0.187500 0.125000
vt 0.187500 0.375000
vt 0.218750 1.000000
vt 0.187500 0.875000
vt 0.218750 0.000000
vt 0.125000 0.250000
vt 0.125000 0.125000
vt 0.125000 0.375000
vt 0.125000 0.625000
vt 0.156250 1.000000
vt 0.125000 0.875000
vt 0.156250 0.000000
vt 0.125000 0.500000
vt 0.125000 0.750000
vt 0.062500 0.375000
vt 0.062500 0.625000
vt 0.093750 1.000000
vt 0.062500 0.875000
vt 0.093750 0.000000
vt 0.062500 0.125000
vt 0.062500 0.250000
vt 0.062500 0.500000
vt 0.062500 0.750000
vt 0.031250 0.000000
vt 0.000000 0.125000
vt 0.000000 0.250000
vt 0.000000 0.625000
vt 0.000000 0.500000
vt 0.000000 0.750000
vt 0.000000 0.375000
vt 0.031250 1.000000
vt 0.000000 0.875000
vt 1.000000 0.500000
vt 0.937500 0.625000
vt 0.937500 0.500000
vt 1.000000 0.875000
vt 0.937500 0.750000
vt 1.000000 0.750000
vt 1.000000 0.250000
vt 0.937500 0.125000
vt 1.000000 0.125000
vt 0.937500 0.375000
vt 1.000000 0.375000
vt 1.000000 0.625000
vt 0.968750 1.000000
vt 0.937500 0.875000
vt 0.968750 0.000000
vt 0.937500 0.250000
vt 0.875000 0.125000
vt 0.875000 0.375000
vt 0.875000 0.750000
vt 0.875000 0.625000
vt 0.906250 1.000000
vt 0.875000 0.875000
vt 0.906250 0.000000
vt 0.875000 0.250000
vt 0.875000 0.500000
vt 0.812500 0.750000
vt 0.812500 0.625000
vt 0.843750 1.000000
vt 0.812500 0.875000
vt 0.843750 0.000000
vt 0.812500 0.125000
vt 0.812500 0.250000
vt 0.812500 0.500000
vt 0.812500 0.375000
vt 0.781250 0.000000
vt 0.781250 1.000000
vn 0.1949 0.0388 -0.9800
vn 0.1949 0.0388 0.9800
vn 0.8203 0.1632 0.5481
vn 0.9626 0.1915 -0.1915
vn 0.5522 0.1098 -0.8264
vn 0.5522 0.1098 0.8264
vn 0.9626 0.1915 0.1915
vn 0.8203 0.1632 -0.5481
vn 0.8161 0.5453 -0.1915
vn 0.4681 0.3128 -0.8264
vn 0.4681 0.3128 0.8264
vn 0.8161 0.5453 0.1915
vn 0.6954 0.4647 -0.5481
vn 0.1653 0.1104 -0.9800
vn 0.1653 0.1104 0.9800
vn 0.6954 0.4647 0.5481
vn 0.3128 0.4681 0.8264
vn 0.5453 0.8161 0.1915
vn 0.4647 0.6954 -0.5481
vn 0.1104 0.1653 -0.9800
vn 0.1104 0.1653 0.9800
vn 0.4647 0.6954 0.5481
vn 0.5453 0.8161 -0.1915
vn 0.3128 0.4681 -0.8264
vn 0.1632 0.8203 -0.5481
vn 0.0388 0.1949 -0.9800
vn 0.0388 0.1949 0.9800
vn 0.1632 0.8203 0.5481
vn 0.1915 0.9626 -0.1915
vn 0.1098 0.5522 -0.8264
vn 0.1098 0.5522 0.8264
vn 0.1915 0.9626 0.1915
vn -0.0388 0.1949 0.9800
vn -0.1632 0.8203 0.5481
vn -0.1915 0.9626 -0.1915
vn -0.1098 0.5522 -0.8264
vn -0.1098 0.5522 0.8264
vn -0.1915 0.9626 0.1915
vn -0.1632 0.8203 -0.5481
vn -0.0388 0.1949 -0.9800
vn -0.3128 0.4681 -0.8264
vn -0.3128 0.4681 0.8264
vn -0.5453 0.8161 0.1915
vn -0.4647 0.6954 -0.5481
vn -0.1104 0.1653 -0.9800
vn -0.1104 0.1653 0.9800
vn -0.4647 0.6954 0.5481
vn -0.5453 0.8161 -0.1915
vn -0.4681 0.3128 0.8264
vn -0.8161 0.5453 0.1915
vn -0.6954 0.4647 -0.5481
vn -0.1653 0.1104 -0.9800
vn -0.1653 0.1104 0.9800
vn -0.6954 0.4647 0.5481
vn -0.8161 0.5453 -0.1915
vn -0.4681 0.3128 -0.8264
vn -0.1949 0.0388 -0.9800
vn -0.1949 0.0388 0.9800
vn -0.8203 0.1632 0.5481
vn -0.9626 0.1915 -0.1915
vn -0.5522 0.1098 -0.8264
vn -0.5522 0.1098 0.8264
vn -0.9626 0.1915 0.1915
vn -0.8203 0.1632 -0.5481
vn -0.8203 -0.1632 0.5481
vn -0.9626 -0.1915 -0.1915
vn -0.5522 -0.1098 -0.8264
vn -0.5522 -0.1098 0.8264
vn -0.9626 -0.1915 0.1915
vn -0.8203 -0.1632 -0.5481
vn -0.1949 -0.0388 -0.9800
vn -0.1949 -0.0388 0.9800
vn -0.4681 -0.3128 0.8264
vn -0.8161 -0.5453 0.1915
vn -0.6954 -0.4647 -0.5481
vn -0.1653 -0.1104 -0.9800
vn -0.1653 -0.1104 0.9800
vn -0.6954 -0.4647 0.5481
vn -0.8161 -0.5453 -0.1915
vn -0.4681 -0.3128 -0.8264
vn -0.5453 -0.8161 0.1915
vn -0.4647 -0.6954 -0.5481
vn -0.1104 -0.1653 -0.9800
vn -0.1104 -0.1653 0.9800
vn -0.4647 -0.6954 0.5481
vn -0.5453 -0.8161 -0.1915
vn -0.3128 -0.4681 -0.8264
vn -0.3128 -0.4681 0.8264
vn -0.0388 -0.1949 0.9800
vn -0.1632 -0.8203 0.5481
vn -0.1915 -0.9626 -0.1915
vn -0.1098 -0.5522 -0.8264
vn -0.1098 -0.5522 0.8264
vn -0.1915 -0.9626 0.1915
vn -0.1632 -0.8203 -0.5481
vn -0.0388 -0.1949 -0.9800
vn 0.1915 -0.9626 -0.1915
vn 0.1098 -0.5522 -0.8264
vn 0.1098 -0.5522 0.8264
vn 0.1915 -0.9626 0.1915
vn 0.1632 -0.8203 -0.5481
vn 0.0388 -0.1949 -0.9800
vn 0.0388 -0.1949 0.9800
vn 0.1632 -0.8203 0.5481
vn 0.3128 -0.4681 0.8264
vn 0.5453 -0.8161 0.1915
vn 0.4647 -0.6954 -0.5481
vn 0.1104 -0.1653 -0.9800
vn 0.1104 -0.1653 0.9800
vn 0.4647 -0.6954 0.5481
vn 0.5453 -0.8161 -0.1915
vn 0.3128 -0.4681 -0.8264
vn 0.6954 -0.4647 -0.5481
vn 0.1653 -0.1104 -0.9800
vn 0.1653 -0.1104 0.9800
vn 0.6954 -0.4647 0.5481
vn 0.8161 -0.5453 -0.1915
vn 0.4681 -0.3128 -0.8264
vn 0.4681 -0.3128 0.8264
vn 0.8161 -0.5453 0.1915
vn 0.1949 -0.0388 0.9800
vn 0.8203 -0.1632 0.5481
vn 0.9626 -0.1915 -0.1915
vn 0.5522 -0.1098 -0.8264
vn 0.5522 -0.1098 0.8264
vn 0.9626 -0.1915 0.1915
vn 0.8203 -0.1632 -0.5481
vn 0.1949 -0.0388 -0.9800
usemtl None
s off
f 112/1/1 54/2/1 5/3/1
f 76/4/2 4/5/2 11/6/2
f 114/7/3 9/8/3 10/9/3
f 113/10/4 7/11/4 8/12/4
f 112/1/5 6/13/5 1/14/5
f 114/7/6 11/6/6 4/5/6
f 113/10/7 9/8/7 3/15/7
f 1/14/8 7/11/8 2/16/8
f 7/11/9 15/17/9 8/12/9
f 5/3/10 13/18/10 6/13/10
f 10/9/11 18/19/11 11/6/11
f 8/12/12 16/20/12 9/8/12
f 6/13/13 14/21/13 7/11/13
f 5/3/14 54/22/14 12/23/14
f 76/24/15 11/6/15 18/19/15
f 9/8/16 17/25/16 10/9/16
f 17/25/17 25/26/17 18/19/17
f 15/17/18 23/27/18 16/20/18
f 13/18/19 21/28/19 14/21/19
f 12/23/20 54/29/20 19/30/20
f 76/31/21 18/19/21 25/26/21
f 16/20/22 24/32/22 17/25/22
f 14/21/23 22/33/23 15/17/23
f 12/23/24 20/34/24 13/18/24
f 20/34/25 28/35/25 21/28/25
f 19/30/26 54/36/26 26/37/26
f 76/38/27 25/26/27 32/39/27
f 23/27/28 31/40/28 24/32/28
f 22/33/29 28/35/29 29/41/29
f 20/34/30 26/37/30 27/42/30
f 24/32/31 32/39/31 25/26/31
f 22/33/32 30/43/32 23/27/32
f 76/44/33 32/39/33 39/45/33
f 30/43/34 38/46/34 31/40/34
f 28/35/35 36/47/35 29/41/35
f 26/37/36 34/48/36 27/42/36
f 32/39/37 38/46/37 39/45/37
f 29/41/38 37/49/38 30/43/38
f 28/35/39 34/48/39 35/50/39
f 26/37/40 54/51/40 33/52/40
f 33/52/41 41/53/41 34/48/41
f 38/46/42 46/54/42 39/45/42
f 36/47/43 44/55/43 37/49/43
f 35/50/44 41/53/44 42/56/44
f 33/52/45 54/57/45 40/58/45
f 76/59/46 39/45/46 46/54/46
f 37/49/47 45/60/47 38/46/47
f 35/50/48 43/61/48 36/47/48
f 46/54/49 52/62/49 53/63/49
f 44/55/50 50/64/50 51/65/50
f 42/56/51 48/66/51 49/67/51
f 40/58/52 54/68/52 47/69/52
f 76/70/53 46/54/53 53/63/53
f 44/55/54 52/62/54 45/60/54
f 42/56/55 50/64/55 43/61/55
f 40/58/56 48/66/56 41/53/56
f 47/69/57 54/71/57 55/72/57
f 76/73/58 53/63/58 61/74/58
f 51/65/59 60/75/59 52/62/59
f 49/67/60 58/76/60 50/64/60
f 47/69/61 56/77/61 48/66/61
f 53/63/62 60/75/62 61/74/62
f 50/64/63 59/78/63 51/65/63
f 48/66/64 57/79/64 49/67/64
f 59/78/65 67/80/65 60/75/65
f 58/76/66 64/81/66 65/82/66
f 55/72/67 63/83/67 56/77/67
f 60/75/68 68/84/68 61/74/68
f 59/78/69 65/82/69 66/85/69
f 56/77/70 64/81/70 57/79/70
f 55/72/71 54/86/71 62/87/71
f 76/88/72 61/74/72 68/84/72
f 68/84/73 74/89/73 75/90/73
f 65/82/74 73/91/74 66/85/74
f 63/83/75 71/92/75 64/81/75
f 62/87/76 54/93/76 69/94/76
f 76/95/77 68/84/77 75/90/77
f 66/85/78 74/89/78 67/80/78
f 64/81/79 72/96/79 65/82/79
f 62/87/80 70/97/80 63/83/80
f 72/96/81 81/98/81 73/91/81
f 70/97/82 79/99/82 71/92/82
f 69/94/83 54/100/83 77/101/83
f 76/102/84 75/90/84 83/103/84
f 73/91/85 82/104/85 74/89/85
f 71/92/86 80/105/86 72/96/86
f 69/94/87 78/106/87 70/97/87
f 75/90/88 82/104/88 83/103/88
f 76/107/89 83/103/89 90/108/89
f 81/98/90 89/109/90 82/104/90
f 80/105/91 86/110/91 87/111/91
f 77/101/92 85/112/92 78/106/92
f 82/104/93 90/108/93 83/103/93
f 80/105/94 88/113/94 81/98/94
f 79/99/95 85/112/95 86/110/95
f 77/101/96 54/114/96 84/115/96
f 87/116/97 93/117/97 94/118/97
f 84/119/98 92/120/98 85/121/98
f 89/122/99 97/123/99 90/124/99
f 87/116/100 95/125/100 88/126/100
f 86/127/101 92/120/101 93/117/101
f 84/119/102 54/128/102 91/129/102
f 76/130/103 90/124/103 97/123/103
f 88/126/104 96/131/104 89/122/104
f 96/131/105 104/132/105 97/123/105
f 94/118/106 102/133/106 95/125/106
f 93/117/107 99/134/107 100/135/107
f 91/129/108 54/136/108 98/137/108
f 76/138/109 97/123/109 104/132/109
f 95/125/110 103/139/110 96/131/110
f 94/118/111 100/135/111 101/140/111
f 91/129/112 99/134/112 92/120/112
f 100/135/113 106/141/113 107/142/113
f 98/137/114 54/143/114 105/144/114
f 76/145/115 104/132/115 111/146/115
f 102/133/116 110/147/116 103/139/116
f 101/140/117 107/142/117 108/148/117
f 98/137/118 106/141/118 99/134/118
f 103/139/119 111/146/119 104/132/119
f 101/140/120 109/149/120 102/133/120
f 76/150/121 111/146/121 4/5/121
f 109/149/122 114/7/122 110/147/122
f 108/148/123 2/16/123 113/10/123
f 105/144/124 1/14/124 106/141/124
f 110/147/125 4/5/125 111/146/125
f 108/148/126 3/15/126 109/149/126
f 107/142/127 1/14/127 2/16/127
f 105/144/128 54/151/128 112/1/128
f 114/7/3 3/15/3 9/8/3
f 113/10/4 2/16/4 7/11/4
f 112/1/5 5/3/5 6/13/5
f 114/7/6 10/9/6 11/6/6
f 113/10/7 8/12/7 9/8/7
f 1/14/8 6/13/8 7/11/8
f 7/11/9 14/21/9 15/17/9
f 5/3/10 12/23/10 13/18/10
f 10/9/11 17/25/11 18/19/11
f 8/12/12 15/17/12 16/20/12
f 6/13/13 13/18/13 14/21/13
f 9/8/16 16/20/16 17/25/16
f 17/25/17 24/32/17 25/26/17
f 15/17/18 22/33/18 23/27/18
f 13/18/19 20/34/19 21/28/19
f 16/20/22 23/27/22 24/32/22
f 14/21/23 21/28/23 22/33/23
f 12/23/24 19/30/24 20/34/24
f 20/34/25 27/42/25 28/35/25
f 23/27/28 30/43/28 31/40/28
f 22/33/29 21/28/29 28/35/29
f 20/34/30 19/30/30 26/37/30
f 24/32/31 31/40/31 32/39/31
f 22/33/32 29/41/32 30/43/32
f 30/43/34 37/49/34 38/46/34
f 28/35/35 35/50/35 36/47/35
f 26/37/36 33/52/36 34/48/36
f 32/39/37 31/40/37 38/46/37
f 29/41/38 36/47/38 37/49/38
f 28/35/39 27/42/39 34/48/39
f 33/52/41 40/58/41 41/53/41
f 38/46/42 45/60/42 46/54/42
f 36/47/43 43/61/43 44/55/43
f 35/50/44 34/48/44 41/53/44
f 37/49/47 44/55/47 45/60/47
f 35/50/48 42/56/48 43/61/48
f 46/54/49 45/60/49 52/62/49
f 44/55/50 43/61/50 50/64/50
f 42/56/51 41/53/51 48/66/51
f 44/55/54 51/65/54 52/62/54
f 42/56/55 49/67/55 50/64/55
f 40/58/56 47/69/56 48/66/56
f 51/65/59 59/78/59 60/75/59
f 49/67/60 57/79/60 58/76/60
f 47/69/61 55/72/61 56/77/61
f 53/63/62 52/62/62 60/75/62
f 50/64/63 58/76/63 59/78/63
f 48/66/64 56/77/64 57/79/64
f 59/78/65 66/85/65 67/80/65
f 58/76/66 57/79/66 64/81/66
f 55/72/67 62/87/67 63/83/67
f 60/75/68 67/80/68 68/84/68
f 59/78/69 58/76/69 65/82/69
f 56/77/70 63/83/70 64/81/70
f 68/84/73 67/80/73 74/89/73
f 65/82/74 72/96/74 73/91/74
f 63/83/75 70/97/75 71/92/75
f 66/85/78 73/91/78 74/89/78
f 64/81/79 71/92/79 72/96/79
f 62/87/80 69/94/80 70/97/80
f 72/96/81 80/105/81 81/98/81
f 70/97/82 78/106/82 79/99/82
f 73/91/85 81/98/85 82/104/85
f 71/92/86 79/99/86 80/105/86
f 69/94/87 77/101/87 78/106/87
f 75/90/88 74/89/88 82/104/88
f 81/98/90 88/113/90 89/109/90
f 80/105/91 79/99/91 86/110/91
f 77/101/92 84/115/92 85/112/92
f 82/104/93 89/109/93 90/108/93
f 80/105/94 87/111/94 88/113/94
f 79/99/95 78/106/95 85/112/95
f 87/116/97 86/127/97 93/117/97
f 84/119/98 91/129/98 92/120/98
f 89/122/99 96/131/99 97/123/99
f 87/116/100 94/118/100 95/125/100
f 86/127/101 85/121/101 92/120/101
f 88/126/104 95/125/104 96/131/104
f 96/131/105 103/139/105 104/132/105
f 94/118/106 101/140/106 102/133/106
f 93/117/107 92/120/107 99/134/107
f 95/125/110 102/133/110 103/139/110
f 94/118/111 93/117/111 100/135/111
f 91/129/112 98/137/112 99/134/112
f 100/135/113 99/134/113 106/141/113
f 102/133/116 109/149/116 110/147/116
f 101/140/117 100/135/117 107/142/117
f 98/137/118 105/144/118 106/141/118
f 103/139/119 110/147/119 111/146/119
f 101/140/120 108/148/120 109/149/120
f 109/149/122 3/15/122 114/7/122
f 108/148/123 107/142/123 2/16/123
f 105/144/124 112/1/124 1/14/124
f 110/147/125 114/7/125 4/5/125
f 108/148/126 113/10/126 3/15/126
f 107/142/127 106/141/127 1/14/127
